<?xml version="1.0" encoding="UTF-8" standalone="no"?>
<!-- Created with Inkscape (http://www.inkscape.org/) -->

<svg
   xmlns:dc="http://purl.org/dc/elements/1.1/"
   xmlns:cc="http://creativecommons.org/ns#"
   xmlns:rdf="http://www.w3.org/1999/02/22-rdf-syntax-ns#"
   xmlns:svg="http://www.w3.org/2000/svg"
   xmlns="http://www.w3.org/2000/svg"
   xmlns:sodipodi="http://sodipodi.sourceforge.net/DTD/sodipodi-0.dtd"
   xmlns:inkscape="http://www.inkscape.org/namespaces/inkscape"
   width="372.04724"
   height="524.40942"
   id="svg2"
   version="1.1"
   inkscape:version="0.48.4 r9939"
   sodipodi:docname="postcard_soc_geek_v6_3_path.svg"
   inkscape:export-filename="/home/svet/Dropbox/falanster/design/postcards/for_falanster/postcard_soc_geek_v6_3_path.png"
   inkscape:export-xdpi="300"
   inkscape:export-ydpi="300">
  <defs
     id="defs4">
    <inkscape:path-effect
       is_visible="true"
       id="path-effect8824-6"
       effect="spiro" />
  </defs>
  <sodipodi:namedview
     id="base"
     pagecolor="#ffffff"
     bordercolor="#666666"
     borderopacity="1.0"
     inkscape:pageopacity="0.0"
     inkscape:pageshadow="2"
     inkscape:zoom="0.98994949"
     inkscape:cx="127.5828"
     inkscape:cy="276.67773"
     inkscape:document-units="px"
     inkscape:current-layer="layer1"
     showgrid="false"
     inkscape:window-width="1301"
     inkscape:window-height="744"
     inkscape:window-x="65"
     inkscape:window-y="24"
     inkscape:window-maximized="1"
     showguides="true"
     inkscape:guide-bbox="true"
     fit-margin-top="0"
     fit-margin-left="0"
     fit-margin-right="0"
     fit-margin-bottom="0">
    <sodipodi:guide
       orientation="0,1"
       position="227.85714,17.142857"
       id="guide2999" />
    <sodipodi:guide
       orientation="1,0"
       position="38.385797,443.45697"
       id="guide3001" />
    <sodipodi:guide
       orientation="1,0"
       position="333.35034,323.24881"
       id="guide3003" />
    <sodipodi:guide
       orientation="1,0"
       position="245.21453,43.689098"
       id="guide3222" />
    <sodipodi:guide
       orientation="0,1"
       position="-205,384.28572"
       id="guide3067" />
    <sodipodi:guide
       orientation="1,0"
       position="-285.87317,520.22856"
       id="guide3069" />
    <sodipodi:guide
       orientation="1,0"
       position="-224.64286,467.85714"
       id="guide3071" />
    <sodipodi:guide
       orientation="1,0"
       position="-164.28572,363.92857"
       id="guide3080" />
    <sodipodi:guide
       orientation="1,0"
       position="-346.07143,348.57143"
       id="guide3089" />
    <sodipodi:guide
       orientation="0,1"
       position="-224.64286,323.57143"
       id="guide3098" />
    <sodipodi:guide
       orientation="0,1"
       position="-238.57143,262.85714"
       id="guide3114" />
  </sodipodi:namedview>
  <metadata
     id="metadata7">
    <rdf:RDF>
      <cc:Work
         rdf:about="">
        <dc:format>image/svg+xml</dc:format>
        <dc:type
           rdf:resource="http://purl.org/dc/dcmitype/StillImage" />
        <dc:title></dc:title>
      </cc:Work>
    </rdf:RDF>
  </metadata>
  <g
     inkscape:label="Layer 1"
     inkscape:groupmode="layer"
     id="layer1"
     transform="translate(-76.181091,-604.13379)">
    <rect
       style="fill:#0000ff;fill-opacity:1;fill-rule:nonzero;stroke:none"
       id="rect2985"
       width="524.40942"
       height="372.04724"
       x="604.13379"
       y="-448.22833"
       transform="matrix(0,1,-1,0,0,0)" />
    <g
       style="font-size:16.16213607999999979px;font-style:normal;font-variant:normal;font-weight:normal;font-stretch:normal;line-height:125%;letter-spacing:0px;word-spacing:0px;fill:#f2f2f2;fill-opacity:1;stroke:none;font-family:Ubuntu;-inkscape-font-specification:Ubuntu"
       id="text2995">
      <path
         d="m 326.10479,1098.4227 c 0.45482,0 0.84309,0.033 1.16481,0.1 0.33279,0.067 0.56575,0.1276 0.69888,0.1831 l -0.28288,1.3312 c -0.13313,-0.067 -0.32172,-0.1276 -0.56576,-0.183 -0.24407,-0.067 -0.54359,-0.1 -0.89857,-0.1 -0.72108,0 -1.22583,0.1997 -1.51425,0.5991 -0.28844,0.3882 -0.43265,0.9152 -0.43265,1.5808 l 0,0.7488 3.32803,0 0,1.2979 -3.32803,0 0,7.3549 -1.54753,0 0,-9.4349 c 0,-1.1093 0.27179,-1.9635 0.81537,-2.5626 0.54357,-0.6101 1.39776,-0.9152 2.56258,-0.9152"
         style="font-size:16.64013290000000111px;fill:#f2f2f2"
         id="path3040" />
      <path
         d="m 332.09056,1110.2206 c 0.36607,0 0.68778,-0.01 0.96512,-0.017 0.28843,-0.022 0.52693,-0.055 0.71553,-0.1 l 0,-2.5792 c -0.11094,-0.055 -0.29398,-0.1 -0.54913,-0.1332 -0.24406,-0.044 -0.54358,-0.066 -0.89856,-0.066 -0.23297,0 -0.48257,0.017 -0.74881,0.05 -0.25515,0.033 -0.49366,0.1054 -0.71552,0.2163 -0.21078,0.1 -0.38828,0.2441 -0.53249,0.4327 -0.14422,0.1775 -0.21632,0.416 -0.21632,0.7155 0,0.5547 0.17749,0.9429 0.53248,1.1648 0.35499,0.2108 0.83755,0.3162 1.4477,0.3162 m -0.13313,-7.7543 c 0.62123,0 1.14262,0.083 1.56418,0.2496 0.43263,0.1553 0.77653,0.3827 1.03169,0.6822 0.26623,0.2884 0.45482,0.6379 0.56576,1.0483 0.11093,0.3994 0.16639,0.8431 0.1664,1.3312 l 0,5.4081 c -0.13313,0.022 -0.32172,0.055 -0.56576,0.1 -0.23297,0.033 -0.49921,0.067 -0.79873,0.1 -0.29953,0.033 -0.62678,0.061 -0.98177,0.083 -0.3439,0.033 -0.68779,0.05 -1.03169,0.05 -0.48811,0 -0.93739,-0.05 -1.34785,-0.1498 -0.41046,-0.1 -0.76544,-0.2551 -1.06497,-0.4659 -0.29952,-0.2219 -0.53248,-0.5103 -0.69888,-0.8653 -0.1664,-0.355 -0.2496,-0.7821 -0.2496,-1.2813 0,-0.477 0.0943,-0.8874 0.28288,-1.2313 0.19968,-0.3439 0.46592,-0.6213 0.79873,-0.832 0.3328,-0.2108 0.72107,-0.3661 1.1648,-0.466 0.44374,-0.1 0.90966,-0.1497 1.39778,-0.1497 0.1553,0 0.31615,0.011 0.48256,0.033 0.1664,0.011 0.3217,0.033 0.46592,0.067 0.15531,0.022 0.28843,0.044 0.39937,0.067 0.11093,0.022 0.18858,0.039 0.23296,0.05 l 0,-0.4327 c -10e-6,-0.2551 -0.0277,-0.5047 -0.0832,-0.7488 -0.0555,-0.2551 -0.15532,-0.477 -0.29952,-0.6656 -0.14422,-0.1996 -0.34391,-0.3549 -0.59905,-0.4659 -0.24406,-0.122 -0.56577,-0.183 -0.96513,-0.183 -0.5103,0 -0.95958,0.039 -1.34785,0.1164 -0.37718,0.067 -0.66006,0.1387 -0.84864,0.2164 l -0.18305,-1.2813 c 0.19968,-0.089 0.53249,-0.172 0.99841,-0.2496 0.46592,-0.089 0.97067,-0.1331 1.51425,-0.1331"
         style="font-size:16.64013290000000111px;fill:#f2f2f2"
         id="path3042" />
      <path
         d="m 340.43532,1111.5019 c -0.95403,-0.022 -1.63073,-0.2275 -2.03009,-0.6157 -0.39937,-0.3883 -0.59905,-0.9929 -0.59905,-1.8138 l 0,-10.3835 1.54753,-0.2662 0,10.4001 c 0,0.2551 0.0222,0.4659 0.0666,0.6323 0.0444,0.1664 0.11648,0.2995 0.21633,0.3994 0.0998,0.1 0.23295,0.1775 0.39936,0.2329 0.1664,0.044 0.37163,0.083 0.61568,0.1165 l -0.21632,1.298"
         style="font-size:16.64013290000000111px;fill:#f2f2f2"
         id="path3044" />
      <path
         d="m 345.31816,1110.2206 c 0.36608,0 0.68779,-0.01 0.96513,-0.017 0.28842,-0.022 0.52693,-0.055 0.71552,-0.1 l 0,-2.5792 c -0.11094,-0.055 -0.29398,-0.1 -0.54912,-0.1332 -0.24406,-0.044 -0.54358,-0.066 -0.89857,-0.066 -0.23296,0 -0.48257,0.017 -0.7488,0.05 -0.25516,0.033 -0.49366,0.1054 -0.71553,0.2163 -0.21078,0.1 -0.38827,0.2441 -0.53248,0.4327 -0.14422,0.1775 -0.21633,0.416 -0.21633,0.7155 0,0.5547 0.1775,0.9429 0.53249,1.1648 0.35499,0.2108 0.83755,0.3162 1.44769,0.3162 m -0.13312,-7.7543 c 0.62123,0 1.14262,0.083 1.56417,0.2496 0.43264,0.1553 0.77654,0.3827 1.03169,0.6822 0.26624,0.2884 0.45482,0.6379 0.56576,1.0483 0.11093,0.3994 0.1664,0.8431 0.16641,1.3312 l 0,5.4081 c -0.13313,0.022 -0.32172,0.055 -0.56577,0.1 -0.23297,0.033 -0.49921,0.067 -0.79872,0.1 -0.29953,0.033 -0.62679,0.061 -0.98177,0.083 -0.3439,0.033 -0.6878,0.05 -1.03169,0.05 -0.48811,0 -0.9374,-0.05 -1.34785,-0.1498 -0.41046,-0.1 -0.76545,-0.2551 -1.06497,-0.4659 -0.29952,-0.2219 -0.53249,-0.5103 -0.69889,-0.8653 -0.1664,-0.355 -0.2496,-0.7821 -0.2496,-1.2813 0,-0.477 0.0943,-0.8874 0.28288,-1.2313 0.19969,-0.3439 0.46593,-0.6213 0.79873,-0.832 0.3328,-0.2108 0.72107,-0.3661 1.16481,-0.466 0.44373,-0.1 0.90966,-0.1497 1.39777,-0.1497 0.1553,0 0.31616,0.011 0.48257,0.033 0.16639,0.011 0.3217,0.033 0.46592,0.067 0.1553,0.022 0.28842,0.044 0.39936,0.067 0.11093,0.022 0.18858,0.039 0.23296,0.05 l 0,-0.4327 c 0,-0.2551 -0.0277,-0.5047 -0.0832,-0.7488 -0.0555,-0.2551 -0.15531,-0.477 -0.29952,-0.6656 -0.14422,-0.1996 -0.3439,-0.3549 -0.59904,-0.4659 -0.24406,-0.122 -0.56577,-0.183 -0.96513,-0.183 -0.5103,0 -0.95959,0.039 -1.34785,0.1164 -0.37718,0.067 -0.66006,0.1387 -0.84865,0.2164 l -0.18304,-1.2813 c 0.19968,-0.089 0.53248,-0.172 0.99841,-0.2496 0.46592,-0.089 0.97067,-0.1331 1.51425,-0.1331"
         style="font-size:16.64013290000000111px;fill:#f2f2f2"
         id="path3046" />
      <path
         d="m 351.06707,1102.9322 c 0.35499,-0.089 0.82646,-0.1831 1.41441,-0.2829 0.58795,-0.1 1.26465,-0.1498 2.0301,-0.1498 0.68778,0 1.25909,0.1 1.71393,0.2996 0.45482,0.1886 0.81536,0.4603 1.08161,0.8153 0.27733,0.3439 0.47146,0.7599 0.5824,1.248 0.11093,0.4882 0.1664,1.0262 0.1664,1.6141 l 0,4.8589 -1.54753,0 0,-4.5261 c -1e-5,-0.5324 -0.0388,-0.9873 -0.11648,-1.3645 -0.0666,-0.3771 -0.18305,-0.6822 -0.34944,-0.9152 -0.16641,-0.2329 -0.38828,-0.3993 -0.66561,-0.4992 -0.27734,-0.1109 -0.62123,-0.1664 -1.03169,-0.1664 -0.1664,0 -0.33835,0.01 -0.51584,0.017 -0.1775,0.011 -0.34945,0.028 -0.51584,0.05 -0.15532,0.011 -0.29953,0.028 -0.43265,0.05 -0.12203,0.022 -0.21078,0.039 -0.26624,0.05 l 0,7.305 -1.54753,0 0,-8.4032"
         style="font-size:16.64013290000000111px;fill:#f2f2f2"
         id="path3048" />
      <path
         d="m 362.6356,1110.2206 c 0.63232,0 1.09824,-0.083 1.39777,-0.2496 0.31061,-0.1664 0.46592,-0.4327 0.46592,-0.7988 0,-0.3771 -0.14976,-0.6767 -0.44928,-0.8985 -0.29953,-0.2219 -0.79318,-0.4715 -1.48097,-0.7488 -0.33281,-0.1332 -0.65452,-0.2663 -0.96513,-0.3994 -0.29952,-0.1442 -0.56022,-0.3106 -0.78209,-0.4992 -0.22187,-0.1886 -0.39936,-0.416 -0.53248,-0.6823 -0.13312,-0.2662 -0.19968,-0.5934 -0.19968,-0.9817 0,-0.7655 0.28288,-1.3701 0.84864,-1.8138 0.56577,-0.4548 1.33676,-0.6822 2.31298,-0.6822 0.24405,0 0.48811,0.017 0.73217,0.05 0.24405,0.022 0.47146,0.055 0.68224,0.1 0.21077,0.033 0.39382,0.072 0.54913,0.1165 0.16639,0.044 0.29397,0.083 0.38272,0.1165 l -0.28288,1.3312 c -0.16641,-0.089 -0.4271,-0.1775 -0.78209,-0.2663 -0.35499,-0.1 -0.78209,-0.1497 -1.28129,-0.1497 -0.43264,0 -0.80982,0.089 -1.13153,0.2662 -0.32171,0.1664 -0.48256,0.4327 -0.48256,0.7988 0,0.1886 0.0333,0.355 0.0998,0.4992 0.0777,0.1442 0.18859,0.2773 0.3328,0.3993 0.15531,0.111 0.3439,0.2164 0.56577,0.3162 0.22186,0.1 0.48811,0.2052 0.79872,0.3161 0.41046,0.1554 0.77654,0.3107 1.09825,0.466 0.32171,0.1442 0.5935,0.3161 0.81537,0.5158 0.23296,0.1997 0.41045,0.4438 0.53248,0.7322 0.12203,0.2773 0.18304,0.6212 0.18305,1.0317 -10e-6,0.7987 -0.29953,1.4033 -0.89857,1.8137 -0.58796,0.4105 -1.43106,0.6157 -2.5293,0.6157 -0.76545,0 -1.36449,-0.067 -1.79714,-0.1997 -0.43264,-0.122 -0.72662,-0.2163 -0.88192,-0.2828 l 0.28288,-1.3312 c 0.17749,0.067 0.46037,0.1664 0.84865,0.2995 0.38826,0.1331 0.90411,0.1997 1.54753,0.1997"
         style="font-size:16.64013290000000111px;fill:#f2f2f2"
         id="path3050" />
      <path
         d="m 369.47989,1102.6826 3.27811,0 0,1.2979 -3.27811,0 0,3.9936 c 0,0.4327 0.0333,0.7932 0.0999,1.0817 0.0666,0.2773 0.16639,0.4992 0.29952,0.6656 0.13312,0.1553 0.29952,0.2662 0.4992,0.3328 0.19968,0.066 0.43264,0.1 0.69889,0.1 0.46592,0 0.83755,-0.05 1.11489,-0.1498 0.28842,-0.1109 0.4881,-0.1885 0.59904,-0.2329 l 0.29952,1.2813 c -0.15531,0.078 -0.4271,0.1719 -0.81536,0.2828 -0.38828,0.1221 -0.83201,0.1831 -1.33121,0.1831 -0.58796,0 -1.07607,-0.072 -1.46434,-0.2163 -0.37717,-0.1553 -0.68224,-0.3828 -0.9152,-0.6823 -0.23297,-0.2995 -0.39937,-0.6656 -0.49921,-1.0982 -0.0888,-0.4438 -0.13312,-0.9541 -0.13312,-1.5309 l 0,-7.721 1.54753,-0.2663 0,2.6791"
         style="font-size:16.64013290000000111px;fill:#f2f2f2"
         id="path3052" />
      <path
         d="m 374.08219,1107.0257 c 0,-0.7655 0.11093,-1.4311 0.3328,-1.9969 0.22187,-0.5768 0.51585,-1.0538 0.88193,-1.431 0.36608,-0.3772 0.78763,-0.6601 1.26465,-0.8487 0.47701,-0.1885 0.96512,-0.2828 1.46433,-0.2828 1.16481,0 2.05782,0.366 2.67906,1.0982 0.62123,0.7211 0.93184,1.8249 0.93185,3.3114 -1e-5,0.067 -1e-5,0.1553 0,0.2662 -1e-5,0.1 -0.006,0.1942 -0.0166,0.2829 l -5.92389,0 c 0.0666,0.8986 0.32726,1.5808 0.78209,2.0468 0.45483,0.4659 1.1648,0.6988 2.12994,0.6988 0.54357,0 0.9984,-0.044 1.36449,-0.1331 0.37717,-0.1 0.66005,-0.1941 0.84864,-0.2829 l 0.21633,1.298 c -0.1886,0.1 -0.5214,0.2052 -0.99841,0.3161 -0.46593,0.111 -0.99842,0.1664 -1.59746,0.1664 -0.75435,0 -1.40886,-0.1109 -1.96353,-0.3328 -0.54358,-0.2329 -0.99286,-0.5491 -1.34785,-0.9485 -0.35499,-0.3993 -0.62123,-0.8708 -0.79873,-1.4144 -0.1664,-0.5546 -0.2496,-1.1592 -0.2496,-1.8137 m 5.94053,-0.8487 c 0.0111,-0.6989 -0.16641,-1.2702 -0.53249,-1.7139 -0.35499,-0.4548 -0.84865,-0.6823 -1.48097,-0.6823 -0.35499,0 -0.67115,0.072 -0.94849,0.2164 -0.26624,0.1331 -0.49366,0.3106 -0.68224,0.5324 -0.18859,0.2219 -0.33835,0.4771 -0.44929,0.7655 -0.0998,0.2884 -0.1664,0.5824 -0.19968,0.8819 l 4.29316,0"
         style="font-size:16.64013290000000111px;fill:#f2f2f2"
         id="path3054" />
      <path
         d="m 387.05473,1102.4995 c 0.13312,0 0.28288,0.011 0.44929,0.033 0.17749,0.011 0.34944,0.033 0.51584,0.067 0.1664,0.022 0.31616,0.05 0.44929,0.083 0.1442,0.022 0.24959,0.044 0.31616,0.066 l -0.26624,1.3479 c -0.12204,-0.044 -0.32727,-0.094 -0.61569,-0.1498 -0.27734,-0.067 -0.63788,-0.1 -1.08161,-0.1 -0.28843,0 -0.57686,0.033 -0.86528,0.1 -0.27734,0.055 -0.46038,0.094 -0.54913,0.1165 l 0,7.2717 -1.54753,0 0,-8.2867 c 0.36608,-0.1331 0.82091,-0.2552 1.36449,-0.3661 0.54357,-0.122 1.15371,-0.1831 1.83041,-0.1831"
         style="font-size:16.64013290000000111px;fill:#f2f2f2"
         id="path3056" />
      <path
         d="m 391.21529,1110.4369 c 0,0.2995 -0.0998,0.5602 -0.29952,0.7821 -0.19969,0.2218 -0.47147,0.3328 -0.81537,0.3328 -0.3439,0 -0.61568,-0.111 -0.81537,-0.3328 -0.19968,-0.2219 -0.29952,-0.4826 -0.29952,-0.7821 0,-0.2995 0.0998,-0.5602 0.29952,-0.7821 0.19969,-0.2219 0.47147,-0.3328 0.81537,-0.3328 0.3439,0 0.61568,0.1109 0.81537,0.3328 0.19968,0.2219 0.29952,0.4826 0.29952,0.7821"
         style="font-size:16.64013290000000111px;fill:#f2f2f2"
         id="path3058" />
      <path
         d="m 395.02744,1103.0653 c 0.18858,-0.122 0.47147,-0.2496 0.84865,-0.3827 0.38826,-0.1331 0.832,-0.1997 1.33121,-0.1997 0.62122,0 1.17035,0.1109 1.64737,0.3328 0.4881,0.2219 0.89856,0.5325 1.23137,0.9318 0.33279,0.3994 0.5824,0.8764 0.74881,1.4311 0.17748,0.5547 0.26623,1.1648 0.26624,1.8304 -10e-6,0.6989 -0.1054,1.3312 -0.31616,1.897 -0.19969,0.5547 -0.48812,1.0261 -0.86529,1.4144 -0.37718,0.3883 -0.83201,0.6878 -1.36449,0.8986 -0.53249,0.2107 -1.13154,0.3161 -1.79714,0.3161 -0.72107,0 -1.35894,-0.05 -1.91361,-0.1497 -0.55467,-0.1 -1.0095,-0.1997 -1.36449,-0.2996 l 0,-12.3969 1.54753,-0.2662 0,4.6426 m 0,6.9223 c 0.1553,0.044 0.37163,0.089 0.64897,0.1331 0.28842,0.033 0.64341,0.05 1.06496,0.05 0.832,0 1.49761,-0.2717 1.99682,-0.8153 0.4992,-0.5547 0.7488,-1.3368 0.74881,-2.3463 -1e-5,-0.4437 -0.0444,-0.8597 -0.13313,-1.248 -0.0887,-0.3883 -0.23296,-0.7211 -0.43264,-0.9984 -0.19969,-0.2884 -0.46038,-0.5103 -0.78209,-0.6656 -0.31062,-0.1664 -0.68779,-0.2496 -1.13152,-0.2496 -0.42156,0 -0.80983,0.072 -1.16481,0.2163 -0.355,0.1442 -0.62679,0.294 -0.81537,0.4493 l 0,5.4746"
         style="font-size:16.64013290000000111px;fill:#f2f2f2"
         id="path3060" />
      <path
         d="m 402.05244,1112.9495 c 0.12202,0.056 0.27733,0.1054 0.46592,0.1498 0.19968,0.055 0.39382,0.083 0.58241,0.083 0.61013,0 1.08715,-0.1387 1.43105,-0.416 0.34389,-0.2662 0.65451,-0.7044 0.93184,-1.3146 -0.69888,-1.3312 -1.3534,-2.74 -1.96353,-4.2266 -0.59905,-1.4976 -1.09825,-3.0118 -1.49761,-4.5427 l 1.66401,0 c 0.12203,0.4992 0.26624,1.0372 0.43264,1.6141 0.1775,0.5768 0.37163,1.1703 0.58241,1.7805 0.21077,0.6101 0.43819,1.2202 0.68224,1.8304 0.24406,0.6101 0.4992,1.1981 0.76545,1.7638 0.42155,-1.1648 0.78763,-2.3185 1.09825,-3.4611 0.31061,-1.1426 0.60458,-2.3185 0.88193,-3.5277 l 1.59745,0 c -0.39937,1.6307 -0.84311,3.2004 -1.33121,4.7091 -0.48812,1.4977 -1.01506,2.901 -1.58081,4.21 -0.22188,0.4992 -0.45484,0.9263 -0.69889,1.2813 -0.23297,0.3661 -0.49366,0.6656 -0.78209,0.8985 -0.28843,0.233 -0.61568,0.405 -0.98176,0.5159 -0.355,0.1109 -0.75991,0.1664 -1.21473,0.1664 -0.12203,0 -0.24961,-0.011 -0.38273,-0.033 -0.13312,-0.011 -0.26624,-0.033 -0.39936,-0.066 -0.12203,-0.022 -0.23851,-0.05 -0.34944,-0.083 -0.0998,-0.033 -0.17195,-0.061 -0.21633,-0.083 l 0.28289,-1.2481"
         style="font-size:16.64013290000000111px;fill:#f2f2f2"
         id="path3062" />
    </g>
    <g
       style="font-size:178.86566162px;font-style:normal;font-variant:normal;font-weight:normal;font-stretch:normal;line-height:125%;letter-spacing:0px;word-spacing:0px;fill:#ffffff;fill-opacity:1;stroke:none;font-family:Courier 10 Pitch;-inkscape-font-specification:Courier 10 Pitch"
       id="text3102">
      <path
         d="m 116.48,800.8551 c 1.78864,-4.29277 3.75616,-8.64516 5.90256,-13.05719 2.14637,-4.412 4.29276,-8.64515 6.43917,-12.69946 2.14636,-4.05426 4.23312,-7.87006 6.26029,-11.44741 2.14636,-3.57727 4.11388,-6.73722 5.90257,-9.47988 -6.2007,-2.98104 -11.08969,-7.03532 -14.66698,-12.16286 -3.57733,-5.12742 -5.36599,-11.14922 -5.36597,-18.06543 -2e-5,-11.56656 3.39843,-20.27135 10.19534,-26.11439 6.79686,-5.84283 16.81333,-8.7643 30.04943,-8.76442 1.90784,1.2e-4 4.05423,0.0597 6.43916,0.17887 2.38482,0.11935 4.76969,0.29822 7.15463,0.5366 2.50405,0.11935 4.88892,0.35784 7.15463,0.71546 2.3848,0.35784 4.47156,0.77519 6.2603,1.25206 l 0,109.10805 -14.66699,0 0,-43.46435 -12.69946,0 c -0.35779,4e-5 -1.13287,4e-5 -2.32525,0 -1.19249,4e-5 -2.20606,-0.0596 -3.04072,-0.17887 -1.66946,2.50416 -3.51774,5.48525 -5.54484,8.94328 -1.90794,3.33886 -3.87546,6.97579 -5.90256,10.91081 -2.02718,3.81582 -4.05432,7.75086 -6.08144,11.80513 -2.02717,4.0543 -3.93507,8.04896 -5.7237,11.984 l -15.74017,0 m 43.64322,-99.27044 c -3.21964,10e-5 -6.31997,0.35783 -9.30102,1.07319 -2.86189,0.71556 -5.42563,1.96762 -7.69122,3.75618 -2.14642,1.66951 -3.87546,3.93514 -5.18711,6.7969 -1.31171,2.86193 -1.96755,6.43924 -1.96752,10.73194 -3e-5,4.53133 0.65581,8.16827 1.96752,10.9108 1.31165,2.74267 3.15993,4.88906 5.54484,6.43917 2.50408,1.55022 5.48517,2.62342 8.94328,3.21958 3.45802,0.47703 7.27382,0.71552 11.44741,0.71546 l 9.65874,0 0,-42.74889 c -1.1925,-0.23839 -3.04078,-0.41726 -5.54483,-0.5366 -2.50418,-0.23839 -5.12754,-0.35763 -7.87009,-0.35773"
         style="fill:#ffffff;font-family:Ubuntu Mono;-inkscape-font-specification:Ubuntu Mono"
         id="path3037" />
    </g>
    <g
       style="font-size:66.37464904999998794px;font-style:normal;font-variant:normal;font-weight:normal;font-stretch:normal;line-height:125%;letter-spacing:0px;word-spacing:0px;fill:#ff0000;fill-opacity:1;stroke:none;font-family:Ubuntu Mono;-inkscape-font-specification:Ubuntu Mono"
       id="text3133">
      <path
         d="m 117.81924,876.75461 c 0,-2.78771 0.4425,-5.19932 1.3275,-7.23483 0.88499,-2.03547 2.10185,-3.71696 3.6506,-5.04448 1.54874,-1.32746 3.34085,-2.30095 5.37635,-2.92048 2.07972,-0.66372 4.29221,-0.99559 6.63746,-0.99562 1.50448,3e-5 2.98684,0.11066 4.44711,0.33187 1.50446,0.17703 3.09745,0.53103 4.77897,1.062 l -1.26112,4.7126 c -1.46027,-0.53097 -2.80988,-0.86285 -4.04885,-0.99562 -1.19477,-0.17697 -2.41163,-0.26547 -3.65061,-0.2655 -1.59301,3e-5 -3.0975,0.22127 -4.51347,0.66375 -1.41601,0.39827 -2.655,1.06202 -3.71698,1.99124 -1.01776,0.88501 -1.83638,2.05763 -2.45587,3.51785 -0.6195,1.41601 -0.92925,3.14175 -0.92924,5.17722 -1e-5,1.94701 0.28761,3.6285 0.86287,5.04448 0.57524,1.37175 1.37173,2.52224 2.38949,3.45148 1.06198,0.885 2.3231,1.54875 3.78335,1.99124 1.46023,0.4425 3.07534,0.66375 4.84535,0.66375 1.41597,0 2.76559,-0.0664 4.04886,-0.19913 1.32746,-0.17699 2.76558,-0.53099 4.31435,-1.06199 l 0.79649,4.57985 c -1.54877,0.57525 -3.11963,0.97349 -4.7126,1.19474 -1.59301,0.2655 -3.31875,0.39825 -5.17722,0.39825 -2.478,0 -4.75686,-0.33187 -6.83659,-0.99562 -2.0355,-0.708 -3.80549,-1.72574 -5.30997,-3.05323 -1.46025,-1.32749 -2.61074,-2.98686 -3.45148,-4.9781 -0.7965,-2.03548 -1.19475,-4.38072 -1.19475,-7.03572"
         style="fill:#ff0000"
         id="path3018" />
      <path
         d="m 164.67975,888.17105 c 1.37172,10e-6 2.58859,-0.0442 3.6506,-0.13275 1.10623,-0.0885 2.01334,-0.19912 2.72136,-0.33187 l 0,-9.1597 c -0.70802,-0.22124 -1.57089,-0.39823 -2.58861,-0.531 -0.97351,-0.13273 -2.01338,-0.19911 -3.11961,-0.19912 -1.01776,10e-6 -2.01338,0.0885 -2.98686,0.2655 -0.9735,0.13276 -1.83637,0.39826 -2.58861,0.79649 -0.75225,0.39826 -1.37175,0.92926 -1.85849,1.59299 -0.48675,0.61951 -0.73013,1.41601 -0.73012,2.38949 -1e-5,1.99125 0.66374,3.38511 1.99124,4.1816 1.37173,0.75226 3.20809,1.12838 5.5091,1.12837 m -0.531,-27.61185 c 2.30097,3e-5 4.22583,0.28765 5.77459,0.86287 1.59297,0.57528 2.87621,1.37177 3.84973,2.38949 0.97347,1.01777 1.65934,2.25676 2.05762,3.71698 0.39822,1.46026 0.59734,3.05325 0.59737,4.77897 l 0,19.24865 c -1.28327,0.22125 -2.98689,0.48675 -5.11085,0.7965 -2.07976,0.30974 -4.22587,0.46462 -6.43834,0.46462 -1.68151,0 -3.31875,-0.15488 -4.91172,-0.46462 -1.59301,-0.2655 -3.009,-0.75225 -4.24798,-1.46025 -1.239,-0.75224 -2.23462,-1.76998 -2.98686,-3.05323 -0.75225,-1.28324 -1.12837,-2.92048 -1.12837,-4.91172 0,-1.76998 0.37612,-3.25235 1.12837,-4.4471 0.79649,-1.23898 1.79211,-2.2346 2.98686,-2.98686 1.23898,-0.75223 2.63285,-1.28323 4.1816,-1.593 1.59298,-0.35398 3.18597,-0.53097 4.77898,-0.53099 2.16822,2e-5 4.2922,0.24339 6.37196,0.73012 l 0,-1.52662 c -2e-5,-0.92922 -0.11064,-1.81422 -0.33187,-2.65498 -0.17702,-0.88498 -0.55314,-1.68147 -1.12837,-2.38949 -0.53102,-0.70797 -1.28326,-1.26109 -2.25674,-1.65937 -0.92926,-0.44247 -2.14613,-0.66372 -3.6506,-0.66374 -1.90276,2e-5 -3.56212,0.13277 -4.9781,0.39824 -1.416,0.26553 -2.50012,0.53103 -3.25236,0.7965 l -0.66375,-4.51348 c 0.75224,-0.35396 1.99123,-0.66371 3.71698,-0.92924 1.76998,-0.26547 3.6506,-0.39822 5.64185,-0.39825"
         style="fill:#ff0000"
         id="path3020" />
      <path
         d="m 209.15076,887.44093 2.58861,0 0,13.20856 -5.17722,0 0,-8.56233 -20.90801,0 0,-30.79784 5.50909,0 0,26.15161 12.54481,0 0,-26.15161 5.44272,0 0,26.15161"
         style="fill:#ff0000"
         id="path3022" />
      <path
         d="m 226.0763,876.82099 c -0.70801,10e-6 -1.39388,0.0443 -2.05762,0.13275 -0.6195,0.0443 -1.19475,0.17701 -1.72574,0.39825 l 0,10.55357 c 0.35399,0.0885 0.90711,0.177 1.65937,0.26549 0.75223,0.0443 1.41598,0.0664 1.99124,0.0664 1.46023,0 2.63284,-0.44249 3.51785,-1.32749 0.92923,-0.92924 1.39386,-2.41161 1.39387,-4.44711 -1e-5,-1.99122 -0.50889,-3.42934 -1.52661,-4.31435 -1.01776,-0.88498 -2.10188,-1.32748 -3.25236,-1.32749 m -8.96058,-15.53167 5.17722,0 0,11.74831 c 0.48674,-0.13273 1.12836,-0.26548 1.92487,-0.39824 0.84073,-0.17698 1.7036,-0.26548 2.58861,-0.2655 1.23898,2e-5 2.4116,0.19914 3.51785,0.59737 1.15048,0.35402 2.1461,0.92926 2.98686,1.72574 0.88498,0.79651 1.57085,1.83638 2.05762,3.11961 0.53097,1.28325 0.79647,2.80987 0.79649,4.57985 -2e-5,3.71699 -0.97351,6.37197 -2.92048,7.96496 -1.90276,1.59299 -4.38074,2.38948 -7.43396,2.38948 -1.54875,0 -3.03112,-0.11062 -4.4471,-0.33187 -1.37175,-0.177 -2.78774,-0.50887 -4.24798,-0.99562 l 0,-30.13409 m 27.21361,30.79784 -5.17723,0 0,-30.79784 5.17723,0 0,30.79784"
         style="fill:#ff0000"
         id="path3024" />
      <path
         d="m 265.63559,880.13972 c -0.61952,10e-6 -1.21689,10e-6 -1.79212,0 -0.53101,-0.0442 -1.03988,-0.0885 -1.52661,-0.13275 -1.28326,1.90275 -2.50013,3.93824 -3.65061,6.10647 -1.1505,2.12399 -2.19037,4.11523 -3.11961,5.97372 l -5.57547,0 c 0.48675,-1.15049 1.03987,-2.32311 1.65937,-3.51786 0.61949,-1.23899 1.26111,-2.4116 1.92486,-3.51785 0.66374,-1.15049 1.32749,-2.23461 1.99124,-3.25236 0.66374,-1.06199 1.30536,-1.99123 1.92487,-2.78774 -2.2125,-0.79648 -3.71699,-1.92485 -4.51348,-3.3851 -0.75225,-1.50448 -1.12837,-3.09747 -1.12837,-4.77898 0,-1.72572 0.30974,-3.23021 0.92925,-4.51348 0.66374,-1.28321 1.57086,-2.34521 2.72136,-3.18598 1.15048,-0.88496 2.5001,-1.54871 4.04885,-1.99124 1.59298,-0.44246 3.31872,-0.66371 5.17722,-0.66374 2.61072,3e-5 4.80108,0.11065 6.57109,0.33187 1.76997,0.22128 3.27446,0.5089 4.51348,0.86287 l 0,30.39959 -5.5091,0 0,-11.94744 -4.64622,0 m 4.64622,-14.80155 c -0.44252,-0.0885 -1.15051,-0.15484 -2.12399,-0.19912 -0.92926,-0.0885 -2.05763,-0.13272 -3.3851,-0.13275 -2.25676,3e-5 -4.07099,0.46465 -5.44272,1.39387 -1.37176,0.92927 -2.05763,2.38951 -2.05762,4.38073 -10e-6,1.99125 0.70799,3.363 2.12399,4.11522 1.41598,0.75227 3.25234,1.12839 5.5091,1.12837 l 5.37634,0 0,-10.68632"
         style="fill:#ff0000"
         id="path3026" />
      <path
         d="m 296.10154,865.86917 c -10e-6,1.32752 -0.0443,2.74351 -0.13274,4.24798 -0.0443,1.46026 -0.15489,2.94263 -0.33188,4.4471 -0.13276,1.46026 -0.33189,2.9205 -0.59737,4.38073 -0.26551,1.416 -0.61951,2.74349 -1.06199,3.98248 -0.88501,2.52224 -2.23463,4.69048 -4.04886,6.50471 -1.81425,1.81424 -4.40285,2.89836 -7.76583,3.25236 l -0.7965,-4.64623 c 1.94699,-0.35399 3.4736,-1.06198 4.57985,-2.12398 1.15049,-1.10624 2.05761,-2.43373 2.72136,-3.98248 0.57524,-1.32748 0.99561,-2.83198 1.26112,-4.51348 0.30974,-1.68147 0.53099,-3.45146 0.66375,-5.30997 0.13274,-1.85847 0.19911,-3.71696 0.19912,-5.57547 -10e-6,-1.85846 -10e-6,-3.60633 0,-5.2436 l 18.18666,0 0,30.79784 -5.5091,0 0,-26.21799 -7.36759,0"
         style="fill:#ff0000"
         id="path3028" />
      <path
         d="m 330.54999,888.23743 c 2.56647,0 4.55771,-0.44249 5.97372,-1.32749 1.41597,-0.92924 2.12397,-2.41161 2.12399,-4.44711 -2e-5,-0.97348 -0.22127,-1.81422 -0.66374,-2.52223 -0.39828,-0.70799 -0.97352,-1.28323 -1.72575,-1.72574 -0.70801,-0.48674 -1.57088,-0.84073 -2.58861,-1.062 -0.97351,-0.22123 -2.01338,-0.33186 -3.11961,-0.33187 -1.1505,10e-6 -2.34525,0.0443 -3.58423,0.13275 -1.19475,0.0443 -2.2125,0.17701 -3.05323,0.39825 l 0,10.55357 c 0.53099,0.0885 1.46023,0.177 2.78774,0.26549 1.37172,0.0443 2.65497,0.0664 3.84972,0.0664 m -12.14656,-26.94811 5.5091,0 0,11.74831 c 0.70799,-0.13273 1.76998,-0.26548 3.18598,-0.39824 1.41598,-0.17698 2.7656,-0.26548 4.04886,-0.2655 1.76997,2e-5 3.45146,0.19914 5.04447,0.59737 1.59297,0.35402 2.98683,0.92926 4.1816,1.72574 1.19472,0.79651 2.12396,1.83638 2.78774,3.11961 0.70796,1.28325 1.06196,2.80987 1.06199,4.57985 -3e-5,3.71699 -1.28327,6.37197 -3.84973,7.96496 -2.52226,1.59299 -5.90736,2.38948 -10.15532,2.38948 -2.07975,0 -4.09311,-0.11062 -6.04009,-0.33187 -1.90275,-0.177 -3.82761,-0.50887 -5.7746,-0.99562 l 0,-30.13409"
         style="fill:#ff0000"
         id="path3030" />
      <path
         d="m 375.35289,892.08716 -5.5091,0 0,-13.6068 -12.74393,0 0,13.6068 -5.50909,0 0,-30.79784 5.50909,0 0,12.54481 12.74393,0 0,-12.54481 5.5091,0 0,30.79784"
         style="fill:#ff0000"
         id="path3032" />
      <path
         d="m 392.01292,876.82099 c -0.70801,10e-6 -1.39388,0.0443 -2.05761,0.13275 -0.61951,0.0443 -1.19476,0.17701 -1.72575,0.39825 l 0,10.55357 c 0.35399,0.0885 0.90712,0.177 1.65937,0.26549 0.75224,0.0443 1.41598,0.0664 1.99124,0.0664 1.46023,0 2.63285,-0.44249 3.51786,-1.32749 0.92923,-0.92924 1.39385,-2.41161 1.39386,-4.44711 -1e-5,-1.99122 -0.50888,-3.42934 -1.52661,-4.31435 -1.01776,-0.88498 -2.10188,-1.32748 -3.25236,-1.32749 m -8.96058,-15.53167 5.17722,0 0,11.74831 c 0.48674,-0.13273 1.12836,-0.26548 1.92487,-0.39824 0.84073,-0.17698 1.7036,-0.26548 2.58861,-0.2655 1.23898,2e-5 2.4116,0.19914 3.51786,0.59737 1.15047,0.35402 2.14609,0.92926 2.98686,1.72574 0.88497,0.79651 1.57084,1.83638 2.05761,3.11961 0.53098,1.28325 0.79647,2.80987 0.7965,4.57985 -3e-5,3.71699 -0.97352,6.37197 -2.92049,7.96496 -1.90276,1.59299 -4.38074,2.38948 -7.43396,2.38948 -1.54875,0 -3.03112,-0.11062 -4.4471,-0.33187 -1.37175,-0.177 -2.78774,-0.50887 -4.24798,-0.99562 l 0,-30.13409 m 27.21361,30.79784 -5.17722,0 0,-30.79784 5.17722,0 0,30.79784"
         style="fill:#ff0000"
         id="path3034" />
    </g>
    <g
       style="font-size:214.76580810999999471px;font-style:normal;font-variant:normal;font-weight:normal;font-stretch:normal;line-height:125%;letter-spacing:0px;word-spacing:0px;fill:#999999;fill-opacity:1;stroke:none;font-family:Ubuntu Mono;-inkscape-font-specification:Ubuntu Mono"
       id="text3911">
      <path
         d="m 115.58231,1057.4065 0,-99.65134 71.51702,0 0,14.81884 -53.90622,0 0,84.8325 -17.6108,0"
         style="fill:#999999"
         id="path3011" />
      <path
         d="m 244.87133,942.29202 c -3.72265,1.2e-4 -6.94413,-1.28848 -9.66446,-3.86578 -2.7204,-2.57707 -4.08058,-6.08491 -4.08055,-10.52353 -3e-5,-4.43836 1.36015,-7.9462 4.08055,-10.52352 2.72033,-2.57705 5.94181,-3.86564 9.66446,-3.86579 3.86573,1.5e-4 7.08722,1.28874 9.66446,3.86579 2.72031,2.57732 4.08049,6.08516 4.08055,10.52352 -6e-5,4.43862 -1.36024,7.94646 -4.08055,10.52353 -2.57724,2.5773 -5.79873,3.8659 -9.66446,3.86578 m -4.51008,30.28198 -28.77862,0 0,-14.81884 46.38941,0 0,61.20824 c -5e-5,9.8793 1.36013,16.537 4.08055,19.9732 2.72031,3.2931 6.80085,4.9397 12.24165,4.9396 4.15207,10e-5 7.94626,-0.5011 11.38259,-1.5033 3.57934,-1.0022 6.3713,-2.0761 8.37587,-3.2215 l 2.57719,15.0336 c -0.85916,0.4295 -2.07617,1.0022 -3.65102,1.7181 -1.57504,0.5727 -3.43634,1.1455 -5.58391,1.7182 -2.00457,0.5727 -4.2954,1.0738 -6.87251,1.5033 -2.43409,0.4296 -5.01127,0.6443 -7.73157,0.6443 -6.29986,0 -11.52582,-0.859 -15.6779,-2.5772 -4.15219,-1.7181 -7.51685,-4.2953 -10.09399,-7.7315 -2.43406,-3.4363 -4.15218,-7.66 -5.15438,-12.6712 -1.00228,-5.1544 -1.5034,-11.0962 -1.50336,-17.8256 l 0,-46.3894"
         style="fill:#999999"
         id="path3013" />
      <path
         d="m 358.48244,1002.6412 c 3.86573,2.8636 8.23263,6.5146 13.10072,10.9531 4.86795,4.2953 9.66438,8.9486 14.38931,13.9597 4.86794,5.0113 9.4496,10.1656 13.74501,15.4632 4.29522,5.1544 7.73147,9.9508 10.30876,14.3893 l -21.04705,0 c -2.72045,-4.4385 -6.08511,-8.9486 -10.094,-13.5303 -4.00903,-4.7248 -8.30434,-9.2349 -12.88595,-13.5302 -4.43854,-4.2953 -8.94862,-8.2327 -13.53024,-11.8121 -4.43854,-3.5794 -8.44749,-6.5861 -12.02689,-9.0202 l 0,47.8928 -17.82556,0 0,-99.65134 17.82556,0 0,41.66457 c 7.87471,-6.87245 15.74945,-13.67336 23.62424,-20.40276 7.87468,-6.87242 14.96195,-13.95968 21.26182,-21.26181 l 20.83228,0 c -6.15671,7.30213 -13.60192,14.81892 -22.33564,22.55041 -8.5907,7.73164 -17.03815,15.17684 -25.34237,22.33563"
         style="fill:#999999"
         id="path3015" />
    </g>
    <g
       style="font-size:191.33975219999999240px;font-style:normal;font-variant:normal;font-weight:normal;font-stretch:normal;line-height:125%;letter-spacing:0px;word-spacing:0px;fill:#ff0000;fill-opacity:1;stroke:none;font-family:Courier 10 Pitch;-inkscape-font-specification:Courier 10 Pitch"
       id="text3006">
      <path
         d="m 237.72678,751.76122 67.92561,27.9356 -4.97483,14.73316 -82.65878,-35.01517 0,-15.30718 82.65878,-35.01518 4.97483,14.73316 -67.92561,27.93561"
         style="fill:#ff0000;font-family:Ubuntu;-inkscape-font-specification:Ubuntu"
         id="path3006" />
      <path
         d="m 359.12288,795.9607 c 11.35277,10e-6 19.45281,-2.23228 24.30015,-6.69689 4.97476,-4.46457 7.46217,-10.45988 7.46225,-17.98594 -8e-5,-4.84723 -1.02055,-8.92914 -3.06144,-12.24574 -2.04102,-3.31651 -4.71978,-5.93148 -8.03627,-7.84493 -3.31661,-2.0409 -7.20718,-3.44406 -11.67172,-4.20948 -4.33708,-0.89285 -8.80167,-1.33931 -13.39378,-1.33938 l -4.59216,0 0,-14.54182 6.31421,0 c 3.18896,8e-5 6.44173,-0.31882 9.75833,-0.9567 3.44406,-0.63772 6.56928,-1.78575 9.37565,-3.44411 2.80625,-1.6582 5.10233,-3.89049 6.88823,-6.69689 1.78577,-2.93379 2.67869,-6.56924 2.67876,-10.90637 -7e-5,-3.57157 -0.63787,-6.633 -1.9134,-9.18431 -1.27567,-2.55108 -2.99772,-4.65582 -5.16617,-6.31421 -2.04102,-1.65816 -4.46466,-2.8062 -7.27091,-3.44411 -2.67881,-0.76524 -5.54891,-1.14792 -8.61029,-1.14804 -6.12292,1.2e-4 -11.35286,0.89304 -15.68986,2.67875 -4.2095,1.78596 -7.78118,3.63557 -10.71503,5.54886 l -6.88823,-13.58513 c 1.5307,-1.02035 3.4441,-2.10461 5.74019,-3.25277 2.42362,-1.27547 5.10237,-2.42351 8.03627,-3.44412 2.93385,-1.02034 6.05906,-1.84948 9.37565,-2.48741 3.44408,-0.76523 7.01575,-1.14791 10.71503,-1.14804 7.01573,1.3e-4 13.07482,0.89305 18.17727,2.67875 5.10233,1.65841 9.3118,4.08205 12.62843,7.27091 3.31647,3.06156 5.80388,6.76079 7.46225,11.09771 1.65819,4.20959 2.48733,8.80173 2.48741,13.77646 -8e-5,6.88833 -1.97726,12.81985 -5.93153,17.7946 -3.95443,4.84735 -8.73792,8.54658 -14.35048,11.0977 3.44404,1.02055 6.7606,2.48749 9.94967,4.40082 3.18891,1.91346 5.93145,4.3371 8.22761,7.27091 2.42354,2.93393 4.33694,6.31427 5.74019,10.14101 1.53062,3.82684 2.29598,8.10009 2.29608,12.81976 -1e-4,5.74022 -1.02058,11.09773 -3.06144,16.07254 -1.91349,4.84729 -4.97492,9.05676 -9.18431,12.62842 -4.08199,3.57168 -9.24816,6.378 -15.49852,8.41895 -6.25049,2.04096 -13.64895,3.06144 -22.19541,3.06144 -3.3166,0 -6.76071,-0.25512 -10.33235,-0.76536 -3.44414,-0.51024 -6.69691,-1.14804 -9.75832,-1.9134 -3.06146,-0.76536 -5.74021,-1.53072 -8.03627,-2.29608 -2.29609,-0.76535 -3.95437,-1.40315 -4.97484,-1.91339 l 3.44412,-15.49852 c 2.1685,1.02049 5.74017,2.35987 10.71502,4.01813 5.10237,1.65829 11.28901,2.48743 18.55996,2.48742"
         style="fill:#ff0000;font-family:Ubuntu;-inkscape-font-specification:Ubuntu"
         id="path3008" />
    </g>
  </g>
</svg>
